<?xml version="1.0" encoding="UTF-8" standalone="no"?>
<!-- Generator: Adobe Illustrator 19.0.0, SVG Export Plug-In . SVG Version: 6.00 Build 0)  -->

<svg
   xmlns:dc="http://purl.org/dc/elements/1.1/"
   xmlns:cc="http://creativecommons.org/ns#"
   xmlns:rdf="http://www.w3.org/1999/02/22-rdf-syntax-ns#"
   xmlns:svg="http://www.w3.org/2000/svg"
   xmlns="http://www.w3.org/2000/svg"
   xmlns:sodipodi="http://sodipodi.sourceforge.net/DTD/sodipodi-0.dtd"
   xmlns:inkscape="http://www.inkscape.org/namespaces/inkscape"
   version="1.1"
   id="Capa_1"
   x="0px"
   y="0px"
   viewBox="0 0 47.355 47.355"
   style="enable-background:new 0 0 47.355 47.355;"
   xml:space="preserve"
   inkscape:version="0.91 r13725"
   sodipodi:docname="fulli-automatic.svg"><metadata
     id="metadata47"><rdf:RDF><cc:Work
         rdf:about=""><dc:format>image/svg+xml</dc:format><dc:type
           rdf:resource="http://purl.org/dc/dcmitype/StillImage" /><dc:title></dc:title></cc:Work></rdf:RDF></metadata><defs
     id="defs45" /><sodipodi:namedview
     pagecolor="#ffffff"
     bordercolor="#666666"
     borderopacity="1"
     objecttolerance="10"
     gridtolerance="10"
     guidetolerance="10"
     inkscape:pageopacity="0"
     inkscape:pageshadow="2"
     inkscape:window-width="1920"
     inkscape:window-height="1057"
     id="namedview43"
     showgrid="false"
     inkscape:zoom="14.095846"
     inkscape:cx="11.382781"
     inkscape:cy="25.244044"
     inkscape:window-x="-8"
     inkscape:window-y="-8"
     inkscape:window-maximized="1"
     inkscape:current-layer="Capa_1" /><path
     inkscape:connector-curvature="0"
     id="path9"
     d="M 47.337,16.172 44.859,3.29 C 44.789,2.927 44.524,2.631 44.17,2.523 43.817,2.413 43.431,2.51 43.17,2.772 L 38.66,7.283 C 29.955,-0.681 16.396,-0.449 7.973,7.974 3.977,11.97 1.67,17.281 1.481,22.929 c -0.019,0.552 0.413,1.015 0.966,1.033 0.011,0 0.022,0 0.034,0 0.536,0 0.98,-0.426 0.998,-0.966 0.174,-5.139 2.272,-9.972 5.908,-13.608 7.882,-7.88 20.701,-7.878 28.581,0 0.375,0.375 1.039,0.375 1.414,0 l 3.868,-3.869 1.844,9.581 -9.581,-1.843 1.304,-1.304 c 0.391,-0.391 0.391,-1.023 0,-1.414 -0.391,-0.391 -1.023,-0.391 -1.414,0 l -2.637,2.637 c -0.262,0.262 -0.357,0.646 -0.249,1 0.108,0.354 0.403,0.619 0.768,0.688 l 12.882,2.478 c 0.325,0.062 0.661,-0.04 0.896,-0.275 0.233,-0.234 0.337,-0.57 0.274,-0.895 z"
     style="fill:#ffffff;fill-opacity:1" /><path
     inkscape:connector-curvature="0"
     id="path11"
     d="m 44.907,23.394 c -0.011,-10e-4 -0.022,-10e-4 -0.034,-10e-4 -0.536,0 -0.98,0.426 -0.998,0.966 -0.173,5.139 -2.271,9.971 -5.907,13.608 -7.881,7.88 -20.7,7.878 -28.581,0 -0.375,-0.375 -1.039,-0.375 -1.414,0 l -3.868,3.869 -1.844,-9.581 9.581,1.843 -1.304,1.303 c -0.391,0.39 -0.391,1.023 0,1.414 0.391,0.391 1.023,0.391 1.414,0 l 2.637,-2.636 c 0.262,-0.262 0.357,-0.646 0.249,-1 C 14.73,32.825 14.435,32.56 14.07,32.491 L 1.189,30.013 c -0.326,-0.063 -0.661,0.041 -0.896,0.275 -0.234,0.234 -0.338,0.57 -0.275,0.896 l 2.478,12.882 c 0.07,0.363 0.335,0.659 0.689,0.767 0.353,0.109 0.738,0.012 1,-0.249 l 4.51,-4.511 c 4.229,3.869 9.606,5.803 14.981,5.803 5.688,0 11.375,-2.165 15.705,-6.495 3.997,-3.997 6.303,-9.308 6.491,-14.955 0.02,-0.551 -0.412,-1.014 -0.965,-1.032 z"
     style="fill:#ffffff;fill-opacity:1" /><g
     id="g13"
     style="fill:#ffffff;fill-opacity:1" /><g
     id="g15"
     style="fill:#ffffff;fill-opacity:1" /><g
     id="g17"
     style="fill:#ffffff;fill-opacity:1" /><g
     id="g19"
     style="fill:#ffffff;fill-opacity:1" /><g
     id="g21"
     style="fill:#ffffff;fill-opacity:1" /><g
     id="g23"
     style="fill:#ffffff;fill-opacity:1" /><g
     id="g25"
     style="fill:#ffffff;fill-opacity:1" /><g
     id="g27"
     style="fill:#ffffff;fill-opacity:1" /><g
     id="g29"
     style="fill:#ffffff;fill-opacity:1" /><g
     id="g31"
     style="fill:#ffffff;fill-opacity:1" /><g
     id="g33"
     style="fill:#ffffff;fill-opacity:1" /><g
     id="g35"
     style="fill:#ffffff;fill-opacity:1" /><g
     id="g37"
     style="fill:#ffffff;fill-opacity:1" /><g
     id="g39"
     style="fill:#ffffff;fill-opacity:1" /><g
     id="g41"
     style="fill:#ffffff;fill-opacity:1" /><text
     xml:space="preserve"
     style="font-style:normal;font-weight:normal;font-size:40px;line-height:125%;font-family:sans-serif;text-align:center;letter-spacing:0px;word-spacing:0px;text-anchor:middle;fill:#ffffff;fill-opacity:1;stroke:none;stroke-width:1px;stroke-linecap:butt;stroke-linejoin:miter;stroke-opacity:1"
     x="24.049639"
     y="33.355"
     id="text3379"
     sodipodi:linespacing="125%"><tspan
       sodipodi:role="line"
       id="tspan3381"
       x="24.049639"
       y="33.355"
       style="font-style:normal;font-variant:normal;font-weight:normal;font-stretch:normal;font-size:27.5px;font-family:'Open Sans';-inkscape-font-specification:'Open Sans';fill:#ffffff;fill-opacity:1">V</tspan></text>
</svg>