<?xml version="1.0" encoding="UTF-8" standalone="no"?>
<!-- Generator: Adobe Illustrator 19.0.0, SVG Export Plug-In . SVG Version: 6.00 Build 0)  -->

<svg
   xmlns:dc="http://purl.org/dc/elements/1.1/"
   xmlns:cc="http://creativecommons.org/ns#"
   xmlns:rdf="http://www.w3.org/1999/02/22-rdf-syntax-ns#"
   xmlns:svg="http://www.w3.org/2000/svg"
   xmlns="http://www.w3.org/2000/svg"
   xmlns:sodipodi="http://sodipodi.sourceforge.net/DTD/sodipodi-0.dtd"
   xmlns:inkscape="http://www.inkscape.org/namespaces/inkscape"
   version="1.1"
   id="Capa_1"
   x="0px"
   y="0px"
   viewBox="0 0 48 48"
   xml:space="preserve"
   inkscape:version="0.91 r13725"
   sodipodi:docname="no-automatic.svg"
   width="48"
   height="48"><metadata
     id="metadata47"><rdf:RDF><cc:Work
         rdf:about=""><dc:format>image/svg+xml</dc:format><dc:type
           rdf:resource="http://purl.org/dc/dcmitype/StillImage" /><dc:title></dc:title></cc:Work></rdf:RDF></metadata><defs
     id="defs45" /><sodipodi:namedview
     pagecolor="#ffffff"
     bordercolor="#666666"
     borderopacity="1"
     objecttolerance="10"
     gridtolerance="10"
     guidetolerance="10"
     inkscape:pageopacity="0"
     inkscape:pageshadow="2"
     inkscape:window-width="1920"
     inkscape:window-height="1057"
     id="namedview43"
     showgrid="false"
     inkscape:zoom="14.095846"
     inkscape:cx="25.59952"
     inkscape:cy="24.036502"
     inkscape:window-x="3832"
     inkscape:window-y="-8"
     inkscape:window-maximized="1"
     inkscape:current-layer="Capa_1" /><path
     inkscape:connector-curvature="0"
     id="path9"
     d="M 47.981584,16.412524 45.469841,3.3551115 C 45.398888,2.9871686 45.13028,2.687138 44.771459,2.5776673 44.413653,2.4661695 44.022396,2.5644903 43.757842,2.830058 L 39.18643,7.4024838 C 30.362895,-0.66996122 16.619264,-0.4348021 8.0815686,8.102893 c -4.0504131,4.050413 -6.3888273,9.433732 -6.5804009,15.15864 -0.019259,0.559517 0.4186238,1.028821 0.9791539,1.047066 0.01115,0 0.0223,0 0.034463,0 0.5432987,0 0.9933446,-0.4318 1.0115897,-0.979154 0.1763693,-5.208977 2.3029376,-10.107787 5.9884486,-13.7932982 7.9893281,-7.9873006 20.9828831,-7.9852734 28.9701841,0 0.380107,0.3801063 1.053148,0.3801063 1.433255,0 l 3.92067,-3.9216832 1.869109,9.7114634 -9.711463,-1.868096 1.321756,-1.321757 c 0.396324,-0.396324 0.396324,-1.03693 0,-1.433254 -0.396324,-0.396324 -1.03693,-0.396324 -1.433254,0 l -2.672908,2.672908 c -0.265567,0.265567 -0.361861,0.654796 -0.25239,1.013616 0.10947,0.358821 0.408487,0.627429 0.778457,0.697369 l 13.057413,2.511743 c 0.329426,0.06284 0.670001,-0.04054 0.908201,-0.278745 0.236173,-0.237186 0.341589,-0.577762 0.277731,-0.907187 z"
     style="fill:#ffffff;fill-opacity:1" /><path
     inkscape:connector-curvature="0"
     id="path11"
     d="m 45.518495,23.732865 c -0.01115,-0.001 -0.0223,-0.001 -0.03446,-0.001 -0.543299,0 -0.993345,0.431801 -1.01159,0.979154 -0.175355,5.208978 -2.301924,10.106774 -5.987435,13.793299 -7.988314,7.987301 -20.981869,7.985274 -28.9701841,0 -0.3801064,-0.380106 -1.053148,-0.380106 -1.4332543,0 l -3.9206701,3.921684 -1.8691096,-9.711464 9.7114631,1.868096 -1.321756,1.320743 c -0.396324,0.395311 -0.396324,1.03693 0,1.433254 0.396324,0.396325 1.03693,0.396325 1.433254,0 l 2.672908,-2.671894 c 0.265568,-0.265567 0.361861,-0.654796 0.252391,-1.013617 -0.109471,-0.35882 -0.408488,-0.627429 -0.778458,-0.697368 L 1.2051916,30.441995 C 0.87475249,30.378137 0.53519083,30.483554 0.29699086,30.72074 0.0598045,30.957926 -0.04561165,31.298502 0.01824621,31.628941 L 2.5299889,44.686353 c 0.070953,0.367943 0.3395616,0.667974 0.698382,0.777445 0.3578068,0.110484 0.7480493,0.01216 1.0136169,-0.252391 L 8.8134,40.638981 c 4.286586,3.921684 9.736804,5.882019 15.184995,5.882019 5.765453,0 11.529892,-2.194481 15.918853,-6.583442 4.051427,-4.051426 6.388827,-9.434746 6.579387,-15.15864 0.02027,-0.558503 -0.41761,-1.027808 -0.97814,-1.046053 z"
     style="fill:#ffffff;fill-opacity:1" /><g
     id="g13"
     style="fill:#ffffff;fill-opacity:1"
     transform="translate(0,0.64500046)" /><g
     id="g15"
     style="fill:#ffffff;fill-opacity:1"
     transform="translate(0,0.64500046)" /><g
     id="g17"
     style="fill:#ffffff;fill-opacity:1"
     transform="translate(0,0.64500046)" /><g
     id="g19"
     style="fill:#ffffff;fill-opacity:1"
     transform="translate(0,0.64500046)" /><g
     id="g21"
     style="fill:#ffffff;fill-opacity:1"
     transform="translate(0,0.64500046)" /><g
     id="g23"
     style="fill:#ffffff;fill-opacity:1"
     transform="translate(0,0.64500046)" /><g
     id="g25"
     style="fill:#ffffff;fill-opacity:1"
     transform="translate(0,0.64500046)" /><g
     id="g27"
     style="fill:#ffffff;fill-opacity:1"
     transform="translate(0,0.64500046)" /><g
     id="g29"
     style="fill:#ffffff;fill-opacity:1"
     transform="translate(0,0.64500046)" /><g
     id="g31"
     style="fill:#ffffff;fill-opacity:1"
     transform="translate(0,0.64500046)" /><g
     id="g33"
     style="fill:#ffffff;fill-opacity:1"
     transform="translate(0,0.64500046)" /><g
     id="g35"
     style="fill:#ffffff;fill-opacity:1"
     transform="translate(0,0.64500046)" /><g
     id="g37"
     style="fill:#ffffff;fill-opacity:1"
     transform="translate(0,0.64500046)" /><g
     id="g39"
     style="fill:#ffffff;fill-opacity:1"
     transform="translate(0,0.64500046)" /><g
     id="g41"
     style="fill:#ffffff;fill-opacity:1"
     transform="translate(0,0.64500046)" /><path
     style="fill:none;fill-rule:evenodd;stroke:#eeeeee;stroke-width:2;stroke-linecap:round;stroke-linejoin:miter;stroke-miterlimit:4;stroke-dasharray:none;stroke-opacity:1;fill-opacity:1"
     d="M 2,2 46,46"
     id="path4151"
     inkscape:connector-curvature="0"
     sodipodi:nodetypes="cc" /><path
     sodipodi:nodetypes="cc"
     inkscape:connector-curvature="0"
     id="path4153"
     d="M 46,2 2,46"
     style="fill:none;fill-rule:evenodd;stroke:#eeeeee;stroke-width:2;stroke-linecap:round;stroke-linejoin:miter;stroke-miterlimit:4;stroke-dasharray:none;stroke-opacity:1;fill-opacity:1" /></svg>